<svg width="400" height="400" viewBox="0 0 400 400" fill="none" xmlns="http://www.w3.org/2000/svg">
<g clip-path="url(#clip0_1319_5976)">
<rect width="400" height="400" rx="200" fill="url(#paint0_linear_1319_5976)"/>
<rect width="400" height="400" fill="url(#paint1_linear_1319_5976)"/>
<path fill-rule="evenodd" clip-rule="evenodd" d="M164.729 259.403C190.969 247.375 221.781 249.062 246.737 264.464L293.449 293.292L264.574 246.657C249.13 221.715 247.453 190.916 259.541 164.702C259.552 164.714 259.563 164.727 259.574 164.739C260.764 162.201 262.092 159.652 263.435 157.234C263.806 156.6 264.185 155.969 264.574 155.342L293.449 108.707L254.143 132.964C227.628 108.62 198.358 91.6361 171.338 83.8327C142.137 75.3995 113.211 77.1885 94.7883 95.7135C76.3656 114.238 74.7811 143.13 83.4372 172.221C92.205 201.689 112.011 233.77 140.416 261.926C168.821 290.082 201.095 309.625 230.673 318.167C259.873 326.6 288.8 324.812 307.223 306.287C325.645 287.762 327.23 258.87 318.574 229.779C311.558 206.201 297.476 180.95 277.577 157.375C273.862 162.882 270.57 169.343 268.316 175.173C284.209 195.287 295.257 216.089 300.891 235.023C308.732 261.375 305.583 281.796 294.132 293.311C282.681 304.825 262.25 308.115 235.799 300.476C213.365 293.997 188.269 280.004 164.729 259.403ZM142.469 237.298C121.829 214.042 107.738 189.22 101.12 166.977C93.2789 140.625 96.4277 120.204 107.879 108.689C119.33 97.1746 139.761 93.8847 166.212 101.524C188.645 108.003 213.741 121.995 237.281 142.597C211.041 154.624 180.23 152.937 155.274 137.535L108.562 108.707L137.437 155.342C152.881 180.284 154.558 211.083 142.469 237.298Z" fill="white"/>
</g>
<defs>
<linearGradient id="paint0_linear_1319_5976" x1="0" y1="200" x2="400" y2="200" gradientUnits="userSpaceOnUse">
<stop stop-color="#22B3EC"/>
<stop offset="1" stop-color="#8E53E6"/>
</linearGradient>
<linearGradient id="paint1_linear_1319_5976" x1="0" y1="200" x2="400" y2="200" gradientUnits="userSpaceOnUse">
<stop stop-color="#22B3EC"/>
<stop offset="1" stop-color="#8E53E6"/>
</linearGradient>
<clipPath id="clip0_1319_5976">
<rect width="400" height="400" rx="200" fill="white"/>
</clipPath>
</defs>
</svg>
