<svg width="94" height="35" viewBox="0 0 94 35" fill="none" xmlns="http://www.w3.org/2000/svg">
<path fill-rule="evenodd" clip-rule="evenodd" d="M12.0957 25.2667C15.7707 23.5821 20.0861 23.8183 23.5815 25.9755L30.1238 30.0131L26.0796 23.4815C23.9166 19.9883 23.6817 15.6747 25.3748 12.0032C25.3763 12.0049 25.3778 12.0066 25.3794 12.0084C25.5459 11.653 25.7321 11.2959 25.9201 10.9572C25.972 10.8684 26.0252 10.7801 26.0796 10.6923L30.1238 4.16064L24.6187 7.55809C20.9051 4.14851 16.8056 1.76977 13.0212 0.67685C8.93152 -0.504276 4.88016 -0.253717 2.29992 2.34084C-0.280308 4.9354 -0.502228 8.98185 0.710117 13.0563C1.93811 17.1834 4.71206 21.6766 8.69041 25.6201C12.6687 29.5636 17.189 32.3007 21.3316 33.4971C25.4213 34.6782 29.4726 34.4277 32.0529 31.8331C34.6331 29.2386 34.855 25.1921 33.6427 21.1176C32.6601 17.8154 30.6878 14.2788 27.9008 10.977C27.3805 11.7483 26.9194 12.6531 26.6037 13.4697C28.8297 16.2868 30.3771 19.2003 31.1661 21.8521C32.2643 25.543 31.8233 28.4031 30.2195 30.0158C28.6157 31.6285 25.7541 32.0892 22.0495 31.0193C18.9075 30.1119 15.3925 28.1521 12.0957 25.2667ZM8.978 22.1707C6.0872 18.9136 4.11365 15.4371 3.18672 12.3218C2.08853 8.63099 2.52953 5.77087 4.13332 4.15817C5.73711 2.54548 8.59867 2.08471 12.3033 3.15462C15.4453 4.06203 18.9602 6.02182 22.257 8.90715C18.582 10.5917 14.2667 10.3554 10.7713 8.19824L4.22906 4.16064L8.27324 10.6923C10.4362 14.1856 10.6711 18.4992 8.978 22.1707Z" fill="white"/>
<path d="M55.9331 26.5932H42.3528V7.58077H45.4569V23.8771H52.829L55.9331 21.5966V26.5932Z" fill="white"/>
<path d="M72.6035 26.5932H59.0232V22.5191L69.4994 14.8365V10.2968H62.1273V13.0129H59.0232V10.2968C59.0232 9.54668 59.2819 8.91293 59.7992 8.39558C60.3424 7.85237 60.9891 7.58077 61.7392 7.58077H69.8874C70.6376 7.58077 71.2713 7.85237 71.7887 8.39558C72.3319 8.91293 72.6035 9.54668 72.6035 10.2968V15.923L62.3213 23.4891V23.8771H72.6035V26.5932Z" fill="white"/>
<path d="M93.3436 26.5932H89.6965L84.3032 18.833H83.9152L78.8322 26.5932H75.1074L82.1303 16.699L75.4954 7.58077H79.2202L84.1868 14.9141H84.5748L89.3085 7.58077H92.9556L86.3984 16.699L93.3436 26.5932Z" fill="white"/>
</svg>
