<svg width="246" height="244" viewBox="0 0 246 244" fill="none" xmlns="http://www.w3.org/2000/svg">
<path fill-rule="evenodd" clip-rule="evenodd" d="M86.7295 180.403C112.969 168.375 143.781 170.062 168.737 185.464L215.449 214.292L186.574 167.657C171.13 142.715 169.453 111.916 181.541 85.702C181.552 85.7143 181.563 85.7267 181.574 85.7391C182.764 83.2014 184.092 80.652 185.435 78.234C185.806 77.5998 186.185 76.9691 186.574 76.3421L215.449 29.7068L176.143 53.9643C149.628 29.6201 120.358 12.6361 93.3379 4.83266C64.1375 -3.6005 35.211 -1.81152 16.7883 16.7135C-1.63441 35.2384 -3.2189 64.1298 5.43715 93.2214C14.205 122.689 34.0108 154.77 62.416 182.926C90.8211 211.082 123.095 230.625 152.673 239.167C181.873 247.6 210.8 245.812 229.223 227.287C247.645 208.762 249.23 179.87 240.574 150.779C233.558 127.201 219.476 101.95 199.577 78.3748C195.862 83.8821 192.57 90.3426 190.316 96.1726C206.209 116.287 217.257 137.089 222.891 156.023C230.732 182.375 227.583 202.796 216.132 214.311C204.681 225.825 184.25 229.115 157.799 221.476C135.365 214.997 110.269 201.004 86.7295 180.403ZM64.4694 158.298C43.8292 135.042 29.7382 110.22 23.12 87.9771C15.2789 61.6248 18.4277 41.2037 29.8786 29.6891C41.3296 18.1746 61.761 14.8847 88.2119 22.5238C110.645 29.0027 135.741 42.9954 159.281 63.5965C133.041 75.6241 102.23 73.937 77.2737 58.5349L30.5622 29.7067L59.4375 76.3421C74.8808 101.284 76.5581 132.083 64.4694 158.298Z" fill="white"/>
</svg>
