<svg width="246" height="244" viewBox="0 0 246 244" fill="none" xmlns="http://www.w3.org/2000/svg">
<path fill-rule="evenodd" clip-rule="evenodd" d="M86.3625 180.403C112.602 168.375 143.414 170.062 168.37 185.464L215.082 214.292L186.207 167.657C170.763 142.715 169.086 111.916 181.174 85.702C181.185 85.7143 181.196 85.7267 181.207 85.7391C182.397 83.2014 183.725 80.652 185.068 78.234C185.439 77.5998 185.818 76.9691 186.207 76.3421L215.082 29.7068L175.776 53.9643C149.261 29.6201 119.991 12.6361 92.9709 4.83267C63.7705 -3.6005 34.844 -1.81152 16.4213 16.7135C-2.00136 35.2384 -3.58585 64.1298 5.07021 93.2214C13.8381 122.689 33.6439 154.77 62.049 182.926C90.4541 211.082 122.729 230.625 152.306 239.167C181.506 247.6 210.433 245.812 228.856 227.287C247.278 208.762 248.863 179.87 240.207 150.779C233.191 127.201 219.109 101.95 199.21 78.3748C195.495 83.8821 192.203 90.3426 189.949 96.1726C205.842 116.287 216.89 137.089 222.524 156.023C230.365 182.375 227.216 202.796 215.765 214.311C204.314 225.825 183.883 229.115 157.432 221.476C134.998 214.997 109.902 201.004 86.3625 180.403ZM64.1024 158.298C43.4623 135.042 29.3712 110.22 22.753 87.9771C14.912 61.6248 18.0607 41.2036 29.5117 29.6891C40.9627 18.1746 61.3941 14.8847 87.845 22.5238C110.279 29.0027 135.375 42.9954 158.914 63.5965C132.674 75.6241 101.863 73.937 76.9067 58.5349L30.1952 29.7067L59.0705 76.3421C74.5138 101.284 76.1911 132.083 64.1024 158.298Z" fill="black"/>
</svg>
