<svg width="122" height="35" viewBox="0 0 122 35" fill="none" xmlns="http://www.w3.org/2000/svg">
<path fill-rule="evenodd" clip-rule="evenodd" d="M12.0957 25.2667C15.7707 23.5821 20.0861 23.8183 23.5815 25.9755L30.1238 30.0131L26.0796 23.4815C23.9166 19.9883 23.6817 15.6747 25.3748 12.0032C25.3763 12.0049 25.3778 12.0066 25.3794 12.0084C25.5459 11.653 25.7321 11.2959 25.9201 10.9572C25.972 10.8684 26.0252 10.7801 26.0796 10.6923L30.1238 4.16064L24.6187 7.55809C20.9051 4.14851 16.8056 1.76977 13.0212 0.67685C8.93152 -0.504276 4.88016 -0.253717 2.29992 2.34084C-0.280308 4.9354 -0.502228 8.98185 0.710117 13.0563C1.93811 17.1834 4.71206 21.6766 8.69041 25.6201C12.6687 29.5636 17.189 32.3007 21.3316 33.4971C25.4213 34.6782 29.4726 34.4277 32.0529 31.8331C34.6331 29.2386 34.855 25.1921 33.6427 21.1176C32.6601 17.8154 30.6878 14.2788 27.9008 10.977C27.3805 11.7483 26.9194 12.6531 26.6037 13.4697C28.8297 16.2868 30.3771 19.2003 31.1661 21.8521C32.2643 25.543 31.8233 28.4031 30.2195 30.0158C28.6157 31.6285 25.7541 32.0892 22.0495 31.0193C18.9075 30.1119 15.3925 28.1521 12.0957 25.2667ZM8.978 22.1707C6.0872 18.9136 4.11365 15.4371 3.18672 12.3218C2.08853 8.63099 2.52953 5.77087 4.13332 4.15817C5.73711 2.54548 8.59867 2.08471 12.3033 3.15462C15.4453 4.06203 18.9602 6.02182 22.257 8.90715C18.582 10.5917 14.2667 10.3554 10.7713 8.19824L4.22906 4.16064L8.27324 10.6923C10.4362 14.1856 10.6711 18.4992 8.978 22.1707Z" fill="black"/>
<path d="M56.5374 25.587H45.2542V9.79045H47.8332V23.3303H53.9584V21.0737H56.5374V25.587ZM60.4123 12.3695H58.1556V9.79045H60.4123V12.3695ZM60.4123 25.587H58.1556V15.9156L60.4123 13.659V25.587ZM75.2404 25.587H72.9837V16.238H66.2138V25.587H63.9572V14.3037H66.2138V15.9156L67.8257 14.3037H72.9837C73.607 14.3037 74.1336 14.5294 74.5634 14.9807C75.0147 15.4106 75.2404 15.9371 75.2404 16.5604V25.587ZM90.0773 25.587H81.0508C80.4275 25.587 79.8902 25.3721 79.4389 24.9422C79.009 24.4909 78.7941 23.9536 78.7941 23.3303V16.5604C78.7941 15.9371 79.009 15.4106 79.4389 14.9807C79.8902 14.5294 80.4275 14.3037 81.0508 14.3037H87.8207C88.444 14.3037 88.9705 14.5294 89.4004 14.9807C89.8517 15.4106 90.0773 15.9371 90.0773 16.5604V18.817L87.8207 21.0737H81.3731L83.3074 19.1394H87.8207V16.238H81.0508V23.6527H90.0773V25.587ZM103.455 25.587H101.198V23.9428L99.2639 25.587H94.4282C93.8049 25.587 93.2676 25.3721 92.8163 24.9422C92.3865 24.4909 92.1715 23.9536 92.1715 23.3303V21.0737C92.1715 20.4504 92.3865 19.9239 92.8163 19.494C93.2676 19.0427 93.8049 18.817 94.4282 18.817H100.876L98.9415 20.7191H94.4282V23.6527H101.198V16.238H92.1715L94.1058 14.3037H101.198C101.821 14.3037 102.348 14.5294 102.778 14.9807C103.229 15.4106 103.455 15.9371 103.455 16.5604V25.587ZM120.206 25.587H117.176L112.694 19.1394H112.372L108.149 25.587H105.054L110.889 17.3663L105.376 9.79045H108.471L112.598 15.8834H112.92L116.853 9.79045H119.883L114.435 17.3663L120.206 25.587Z" fill="black"/>
</svg>
